<?xml version="1.0" encoding="UTF-8" standalone="no"?>
<!-- Created with Inkscape (http://www.inkscape.org/) -->

<svg
   width="210mm"
   height="297mm"
   viewBox="0 0 210 297"
   version="1.1"
   id="svg1"
   xml:space="preserve"
   inkscape:export-filename="tired.svg"
   inkscape:export-xdpi="96"
   inkscape:export-ydpi="96"
   xmlns:inkscape="http://www.inkscape.org/namespaces/inkscape"
   xmlns:sodipodi="http://sodipodi.sourceforge.net/DTD/sodipodi-0.dtd"
   xmlns="http://www.w3.org/2000/svg"
   xmlns:svg="http://www.w3.org/2000/svg"><sodipodi:namedview
     id="namedview1"
     pagecolor="#ffffff"
     bordercolor="#000000"
     borderopacity="0.25"
     inkscape:showpageshadow="2"
     inkscape:pageopacity="0.0"
     inkscape:pagecheckerboard="0"
     inkscape:deskcolor="#d1d1d1"
     inkscape:document-units="mm" /><defs
     id="defs1" /><g
     inkscape:label="Livello 1"
     inkscape:groupmode="layer"
     id="layer1"><path
       style="fill:#111111;stroke:none;stroke-width:4.43656"
       d="m 107.32148,61.336457 c -3.93829,6.219483 -4.86314,10.650983 -2.34772,17.607632 l -5.869177,9.390717 c -14.870199,0.0088 -26.907134,5.696051 -41.0844,8.807394 -3.805908,0.835252 -10.277526,-1.665399 -13.376912,0.636805 -3.089311,2.294645 -5.100851,15.817835 -6.9371,19.901835 -8.065767,17.93927 -22.014727,38.15824 -25.465798,57.51824 H 7.5449764 C 8.3354396,212.30289 75.08206,216.57169 86.059188,183.4169 88.354933,176.48296 80.12231,168.53841 77.105045,162.28683 68.276811,143.9952 56.59121,124.25648 50.977135,104.76859 l 48.127448,-7.043046 c 0.71294,6.484426 3.901397,12.139846 4.499717,18.781456 2.10639,23.38162 0.79392,48.47937 -2.58586,71.60433 -1.281997,8.7715 -0.29902,17.12976 -3.958119,25.75567 -4.669001,11.00626 -27.660969,2.23977 -29.649437,14.15493 h 80.995036 c -1.98186,-11.87546 -25.10823,-2.91066 -29.81614,-14.15493 -3.67531,-8.77804 -2.76961,-16.81537 -3.95446,-25.75567 -3.2047,-24.18216 -4.95634,-50.75954 -2.25528,-75.12584 0.60267,-5.43655 3.61874,-9.88674 4.33218,-15.259946 l 48.12747,7.043046 c -7.65045,18.6475 -16.58953,37.10796 -25.53378,55.17055 -2.53984,5.12919 -10.9773,15.78203 -10.16513,21.15086 4.94733,32.70434 62.09719,30.27779 76.06331,7.01683 6.47343,-10.78166 -8.38927,-30.54675 -13.65587,-41.07995 -5.96559,-11.93115 -11.8199,-24.07915 -16.96725,-36.38908 -1.46664,-3.50749 -0.45923,-9.34616 -2.73444,-12.199457 -2.58137,-3.237374 -10.28842,-0.39042 -14.09606,-1.292476 -14.16234,-3.355165 -26.17313,-8.809338 -41.03825,-8.811061 l -5.86923,-9.390717 c 2.49705,-6.916244 1.4981,-12.095712 -3.52151,-17.607632 M 47.455611,109.46395 c 8.779387,21.08717 25.327198,43.1904 29.346018,65.73513 H 16.935722 L 35.35488,134.11463 47.455611,109.46395 m 122.079479,1.17385 c 8.30552,19.94885 26.0138,43.02625 28.17219,64.56128 H 137.84136 L 167.1874,110.6378 Z"
       id="path4" /></g></svg>
