<svg width="797" height="811" viewBox="0 0 797 811" fill="none" xmlns="http://www.w3.org/2000/svg">
<g fill="#ce132d">
<path d="M370.86 382.36L147.06 304.42L252.28 409.64L147.06 514.84L370.86 436.9L292.92 660.7L398.14 555.48L503.35 660.7L425.41 436.9L649.21 514.84L543.98 409.63L649.2 304.41L425.4 382.35L503.34 158.55L398.13 263.77L292.92 158.56L370.86 382.36ZM525.49 409.63L599.57 483.71L404.16 415.65L472.22 611.06L398.14 536.98L324.06 611.06L392.12 415.65L196.7 483.71L270.78 409.63L196.7 335.55L392.12 403.61L324.06 208.19L398.14 282.27L472.22 208.19L404.16 403.61L599.57 335.55L525.49 409.63Z"/>
<path d="M61.47 409.63C61.47 326.18 92.01 249.73 142.48 190.84L134.3 180.06C80.8 241.49 48.39 321.77 48.39 409.63C48.39 554.84 136.9 679.37 262.91 732.23L266.45 719.43C146.07 668.08 61.47 548.55 61.47 409.63Z"/>
<path d="M653.7 190.84C704.17 249.72 734.71 326.17 734.71 409.63C734.71 548.55 650.11 668.08 529.73 719.43L533.27 732.23C659.28 679.37 747.79 554.84 747.79 409.63C747.79 321.77 715.38 241.49 661.88 180.06L653.7 190.84Z"/>
<path d="M326.79 736.1L311.45 800.22L300.31 797.56L313.37 742.96L305.18 741.01L307.46 731.48L326.79 736.1Z"/>
<path d="M342.09 760.73C341.2 768.09 345.8 774.28 353.34 775.2C360.79 776.1 366.83 771.21 367.7 764.03C368.63 756.4 363.92 750.29 356.47 749.39C348.93 748.46 343 753.28 342.09 760.73ZM331.55 759.46C333.1 746.64 344.26 738.31 357.62 739.93C370.71 741.52 379.36 752.35 377.75 765.62C375.74 782.16 358.34 799.43 346.35 806.27L331.8 804.51C343.68 797.83 353.23 789.03 358.87 782.15C357.47 783.09 354.46 784.29 350.64 783.83C337.82 782.26 330.14 771.09 331.55 759.46Z"/>
<path d="M409.46 799.98C418.43 799.72 423.55 790.05 423.15 776.05C422.74 762.05 417.07 752.69 408.1 752.95C399.22 753.21 394.1 762.88 394.5 776.88C394.91 790.87 400.58 800.23 409.46 799.98ZM407.79 742.33C423.71 741.87 434.12 756.5 434.67 775.72C435.23 794.93 425.68 810.14 409.76 810.6C393.93 811.06 383.43 796.43 382.88 777.22C382.33 757.99 391.96 742.79 407.79 742.33Z"/>
<path d="M472.87 792.99C481.68 791.28 485.16 780.9 482.49 767.15C479.82 753.4 472.7 745.09 463.89 746.8C455.17 748.49 451.69 758.87 454.36 772.62C457.04 786.37 464.15 794.68 472.87 792.99ZM461.87 736.37C477.5 733.33 490.15 746.08 493.81 764.95C497.48 783.82 490.53 800.37 474.89 803.41C459.34 806.43 446.61 793.71 442.95 774.83C439.29 755.97 446.32 739.39 461.87 736.37Z"/>
<path d="M167.44 115.35L162.85 114.52L192.56 157.38L180.85 165.5L131.83 94.78L132.02 94.65L189.38 108.17L196.84 49.72L197.03 49.59L246.05 120.31L234.44 128.36L204.74 85.5L203.81 90.16C202.71 101.38 201.44 112.57 200.17 123.76L167.44 115.35Z"/>
<path d="M289.66 74.15C281.43 65.62 274.42 58.01 267.81 50.14C267.39 59.68 266.99 71.35 266.2 82.65L289.66 74.15ZM257.89 23.81L258.33 23.65L325.39 90.87L310.78 96.16L297.96 82.9L265.42 94.69L264.09 113.09L249.48 118.39L257.89 23.81Z"/>
<path d="M330.52 91.62L318.34 7.74001L333.02 5.61L343.41 77.14L377.54 72.19L379.34 84.54L330.52 91.62Z"/>
<path d="M370.14 0L369.94 12.48L394.66 12.87L393.49 85.14L408.32 85.38L409.49 13.11L434.21 13.51L434.41 1.03L370.14 0Z"/>
<path d="M477.36 66.09C474.67 54.54 472.55 44.42 470.91 34.27C465.65 42.25 459.32 52.06 452.85 61.36L477.36 66.09ZM475.89 6.57001L476.35 6.66L499.47 98.77L484.21 95.83L480 77.87L446.01 71.31L435.42 86.41L420.16 83.47L475.89 6.57001Z"/>
<path d="M566.15 50.18L555.58 71.74L582.63 85.01L577.19 96.11L550.13 82.84L534.32 115.07L521.01 108.54L558.33 32.45L603.77 54.74L598.28 65.94L566.15 50.18Z"/>
<path d="M616.96 133.3C619.5 121.72 621.94 111.67 624.82 101.8C616.64 106.74 606.71 112.87 596.87 118.49L616.96 133.3ZM641.23 78.94L641.61 79.22L622.86 172.3L610.35 163.08L614.28 145.06L586.42 124.52L570.37 133.6L557.86 124.38L641.23 78.94Z"/>
<path d="M253.41 766.64C206.23 747.53 162.91 718.96 125.84 681.89C53.12 609.17 13.07 512.48 13.07 409.63C13.07 313.24 48.25 222.26 112.54 151.35L104.52 140.77C39.62 211.6 0 305.99 0 409.63C0 577.13 103.46 720.45 249.95 779.23L253.41 766.64Z"/>
<path d="M691.67 140.77L683.65 151.35C747.94 222.26 783.12 313.24 783.12 409.63C783.12 512.47 743.07 609.16 670.35 681.89C633.27 718.97 589.95 747.53 542.78 766.64L546.26 779.23C692.75 720.45 796.21 577.13 796.21 409.63C796.2 305.98 756.58 211.6 691.67 140.77Z"/>
<path d="M556.32 650.6L496.6 507.83L639.28 567.54C617.58 600.55 589.31 628.87 556.32 650.6ZM337.07 691.5L398.09 630.48L459.11 691.49C439.43 695.75 419.02 698.01 398.09 698.01C377.16 698.01 356.75 695.75 337.07 691.5ZM156.9 567.54L299.88 507.83L240.13 650.79C207.03 629.03 178.66 600.65 156.9 567.54ZM116.22 348.61L177.14 409.53L116.19 470.48C111.96 450.85 109.71 430.5 109.71 409.62C109.7 388.7 111.97 368.29 116.22 348.61ZM240.24 168.4L299.89 311.12L157.09 251.44C178.84 218.41 207.18 190.1 240.24 168.4ZM458.95 127.72L398.09 188.58L337.23 127.72C356.86 123.49 377.21 121.24 398.09 121.24C418.96 121.24 439.32 123.49 458.95 127.72ZM639.13 251.5L496.6 311.12L555.22 167.93C588.61 189.71 617.22 218.21 639.13 251.5ZM619.04 409.53L679.96 348.61C684.22 368.29 686.48 388.7 686.48 409.62C686.48 430.49 684.23 450.85 680 470.48L619.04 409.53ZM473.97 687.86L398.09 611.98L322.21 687.86C296.94 680.96 273.04 670.7 251.03 657.6L304.96 502.76L150.12 556.69C136.99 534.63 126.72 510.68 119.82 485.35L195.64 409.53L119.86 333.75C126.79 308.38 137.09 284.4 150.27 262.31L304.96 316.18L251.12 161.6C273.16 148.49 297.07 138.24 322.37 131.35L398.09 207.08L473.82 131.35C499.21 138.27 523.22 148.57 545.32 161.75L491.54 316.18L645.97 262.39C659.12 284.45 669.41 308.41 676.33 333.74L600.55 409.52L676.37 485.34C669.48 510.63 659.23 534.55 646.12 556.59L491.54 502.75L545.41 657.43C523.32 670.63 499.34 680.94 473.97 687.86ZM398.09 108.16C231.6 108.16 96.63 243.13 96.63 409.62C96.63 576.11 231.59 711.09 398.09 711.09C564.59 711.09 699.56 576.12 699.56 409.62C699.56 243.12 564.58 108.16 398.09 108.16Z"/>
</g>
</svg>