<?xml version="1.0" encoding="UTF-8" standalone="no"?>
<!-- Created with Inkscape (http://www.inkscape.org/) -->

<svg
   width="210mm"
   height="297mm"
   viewBox="0 0 210 297"
   version="1.1"
   id="svg1"
   xml:space="preserve"
   inkscape:export-filename="bilancia.svg"
   inkscape:export-xdpi="96"
   inkscape:export-ydpi="96"
   xmlns:inkscape="http://www.inkscape.org/namespaces/inkscape"
   xmlns:sodipodi="http://sodipodi.sourceforge.net/DTD/sodipodi-0.dtd"
   xmlns="http://www.w3.org/2000/svg"
   xmlns:svg="http://www.w3.org/2000/svg"><sodipodi:namedview
     id="namedview1"
     pagecolor="#ffffff"
     bordercolor="#000000"
     borderopacity="0.25"
     inkscape:showpageshadow="2"
     inkscape:pageopacity="0.0"
     inkscape:pagecheckerboard="0"
     inkscape:deskcolor="#d1d1d1"
     inkscape:document-units="mm" /><defs
     id="defs1" /><g
     inkscape:label="Livello 1"
     inkscape:groupmode="layer"
     id="layer1"><path
       style="fill:#040404;stroke:none;stroke-width:2.21972"
       d="m 122.00923,97.973709 4.91397,19.022691 -2.52304,18.43738 0.82828,11.70628 c -13.32112,-12.26101 -33.672083,-15.55232 -50.629631,-9.95011 -3.570578,1.17963 -7.065357,2.67532 -10.24299,4.6981 -1.781627,1.13412 -3.710864,3.30194 -5.853138,3.66092 -2.774355,0.46492 -6.130317,-3.04037 -8.487049,-4.18617 -4.957148,-2.41006 -10.651394,-3.54678 -16.096127,-4.1584 -1.937718,-0.21775 -4.251688,-0.71612 -6.144441,-0.004 -3.657163,1.37368 -2.049952,10.85771 -2.049952,14.03806 v 33.65478 c 0,3.6003 -1.278655,10.22709 0.385694,13.44956 0.800652,1.55023 2.779961,1.94576 4.296817,2.45146 l 10.535646,3.51188 c 6.774773,2.25825 13.482303,5.0804 20.485981,6.5719 8.292715,1.76603 16.727294,1.81761 25.168491,1.81761 10.033427,0 20.315919,0.31447 30.143659,-2.01475 10.71167,-2.53869 20.31616,-8.24816 29.85101,-13.53672 6.27913,-3.48276 12.74848,-6.48791 18.73002,-10.49523 7.32312,-4.90609 13.10111,-11.18705 17.6179,-18.7298 1.45391,-2.42795 3.80229,-5.51716 3.70699,-8.48705 -0.10366,-3.22762 -2.66603,-6.76801 -3.96872,-9.65768 -3.21202,-7.12501 -6.40308,-14.25814 -9.65675,-21.36397 -6.38888,-13.95294 -12.762,-27.99004 -18.69617,-42.142583 -3.08947,-7.368109 -5.6027,-16.556942 -12.70844,-21.159349 -7.91536,-5.126772 -17.46332,-3.716474 -26.33913,-3.716474 -7.73962,0 -16.025772,-1.40224 -22.241918,4.147987 -1.701738,1.519441 -3.26958,3.205672 -4.764937,4.924377 -1.338916,1.538886 -2.799022,3.056596 -3.583009,4.975165 -3.001431,7.345091 4.511326,14.176317 8.933259,19.022694 2.711301,2.971536 5.217733,6.990153 9.365025,8.043773 7.01942,1.78332 12.49788,-3.408381 19.0227,-4.531891 M 41.821239,199.52565 v -0.29267 c 4.111856,0.0111 7.626726,1.96032 11.413618,3.30933 5.46564,1.94703 11.175092,3.68666 16.974099,4.25007 7.257662,0.70514 14.656903,0.34235 21.949265,0.34235 7.183067,0 14.646249,0.33786 21.656609,-1.50848 12.92735,-3.40469 24.39277,-10.75935 35.99679,-17.13216 6.85824,-3.76646 14.51569,-7.48448 20.19219,-12.97782 2.15469,-2.08514 3.77102,-4.85359 5.48011,-7.30491 1.50406,-2.15726 3.47171,-4.17949 4.29613,-6.7311 1.09432,-3.38693 -2.0561,-8.03667 -3.38067,-11.12096 -4.01456,-9.34781 -8.44086,-18.51298 -12.58088,-27.80242 -4.8972,-10.98844 -10.35751,-21.78797 -14.5775,-33.070218 -2.61685,-6.996174 -5.26589,-15.890161 -12.01363,-20.056239 -6.01634,-3.714542 -15.4406,-2.478337 -22.2419,-2.478337 -4.26475,0 -9.37023,-1.213364 -13.46223,0.330583 -5.608851,2.116279 -7.921124,8.674036 -12.584245,11.960994 1.039187,-4.375064 6.620442,-10.040916 10.535643,-12.094444 3.320912,-1.741812 8.362272,-0.78245 11.998942,-0.78245 9.72758,0 23.57068,-2.979861 30.53318,5.853129 4.84624,6.148197 6.77442,14.041913 9.94289,21.071294 6.62641,14.701058 12.90209,29.591018 19.74688,44.191188 2.36047,5.03494 4.39524,10.23752 6.86796,15.21816 1.26415,2.54633 3.09695,5.23399 2.33876,8.1944 -0.81943,3.19957 -3.02521,6.13719 -4.92209,8.7797 -7.19111,10.01763 -17.51282,15.62151 -28.21814,21.14694 -9.87883,5.09887 -19.30831,11.54671 -30.14366,14.51271 -9.41138,2.57619 -19.312812,2.09309 -28.973022,2.09309 -8.365604,0 -16.935863,0.51093 -25.16849,-1.23228 -7.414169,-1.56994 -14.245575,-5.13978 -21.656609,-6.66945 M 89.524308,79.82898 c 0.784355,1.817416 2.051385,2.687346 3.248129,4.158397 2.722641,3.346736 5.222491,6.466949 8.453863,9.387387 1.54933,1.400243 2.91595,3.727595 5.2721,3.680781 2.18174,-0.04328 4.45408,-1.669206 6.43847,-2.477649 4.20363,-1.712602 8.11821,-3.088471 12.58424,-3.920599 -1.26843,1.673778 -5.61773,2.305687 -7.60908,3.102255 -3.76659,1.506678 -9.93941,5.391584 -14.04753,3.7422 -3.54263,-1.422328 -5.674712,-5.224661 -8.030233,-8.01509 -1.87586,-2.222226 -7.713127,-6.209461 -6.309959,-9.657682 m 39.216022,12.876917 -1.46329,-1.755953 c 1.02187,0.309229 1.29705,0.707558 1.46329,1.755953 m 0,1.463282 -0.8039,3.80453 2.16625,5.560481 1.56421,9.65768 h -0.29265 l -4.97516,-17.559409 2.34125,-1.463282 M 90.141463,107.26354 c -1.240363,0.52512 -1.429794,2.11255 -1.483604,3.29442 -0.106724,2.3442 -1.708302,12.95858 3.487492,10.94414 1.327067,-0.51451 1.40099,-1.82648 1.501224,-3.04241 0.234702,-2.84713 0.915902,-6.58493 0.03227,-9.36388 -0.473656,-1.48964 -1.982882,-2.49042 -3.537397,-1.83227 m -16.712156,7.34307 c -1.827035,0.17425 -2.476562,2.01837 -1.82481,3.56043 0.932647,2.20666 4.61549,6.58193 7.383039,6.04012 1.935369,-0.37891 2.27369,-2.49481 1.487899,-3.99152 -1.128034,-2.1486 -4.318091,-5.86927 -7.046128,-5.60903 m 35.117708,-0.034 c -2.6691,0.24686 -5.8313,3.56276 -6.73269,5.93555 -0.67545,1.77801 0.14215,3.96324 2.34283,3.72597 2.62565,-0.28308 5.59565,-3.81873 6.60871,-6.06722 0.74496,-1.65344 -0.1758,-3.78326 -2.21885,-3.5943 m 23.41254,3.5943 -0.0804,8.7797 -1.38288,4.38986 h -0.29267 l 1.33887,-9.36503 0.41708,-3.80453 m -1.75595,13.46221 -0.29265,2.34125 h -0.29265 l 0.5853,-2.34125 m -0.29265,4.0972 c 0.0446,5.39345 1.80137,10.72193 2.03708,16.09613 0.0881,2.00856 0.26288,4.77206 -2.03843,5.63478 -2.89207,1.08415 -6.03874,-3.23968 -7.90038,-4.83606 -5.15725,-4.42243 -11.19699,-10.10382 -18.43738,-10.16373 -1.35982,-2.46613 -7.731055,-1.54313 -10.242992,-1.8395 -9.072695,-1.07051 -19.423983,1.93919 -26.924432,7.03302 -2.68888,1.82611 -5.252944,4.00672 -7.582885,6.26977 -1.523823,1.48004 -2.647035,3.38296 -5.001361,3.44502 -6.39562,0.1687 -0.857937,-6.66162 -2.670266,-8.42742 -4.142075,-4.03574 -11.987941,-5.44291 -17.523056,-6.18824 v -0.29265 c 7.65618,0 14.349555,3.08827 20.778637,7.02376 -0.514156,1.12245 -5.878404,8.0622 -0.753774,7.27735 1.820188,-0.27875 3.135098,-2.53734 4.291851,-3.76435 2.340035,-2.48218 5.27094,-4.63238 8.168198,-6.42061 9.261837,-5.71657 20.564216,-8.00376 31.314288,-6.6663 8.897942,1.10704 17.077712,4.9539 23.997862,10.58646 1.75715,1.43023 5.64753,7.23715 8.18896,5.99857 2.27496,-1.10873 1.5209,-3.6015 1.25871,-5.54783 -0.673,-4.99588 -1.54262,-10.17537 -1.54595,-15.21817 h 0.58532 m -96.576761,6.43845 v 0.29267 h -2.341254 v 36.87475 c 0,3.71399 -0.108833,7.42667 0.242977,11.12096 0.122284,1.28413 -0.114005,2.64307 0.593446,3.80025 1.74371,2.85221 6.673524,3.4181 9.699224,3.80884 v 1.17061 c -2.463599,-0.80161 -8.755591,-1.71076 -10.235086,-3.92693 -0.737876,-1.10528 -0.591164,-3.28163 -0.593217,-4.56012 v -9.95033 -38.6307 h 2.63391 m 47.995728,44.48383 v 0.58532 c -9.799835,-0.007 -19.572296,-2.50963 -28.680373,-5.97732 -2.468529,-0.93983 -7.842383,-5.15115 -10.468807,-3.17045 -1.671212,1.26034 -0.451337,3.03624 0.812483,3.99423 2.511482,1.9037 5.849181,2.89695 8.778352,3.96735 11.704266,4.27699 24.148453,6.45402 36.582109,6.45402 v 0.29265 L 75.769425,192.41818 62.599867,190.7458 c -1.032486,-1.76729 -4.833353,-1.67742 -6.731108,-2.1581 -4.700623,-1.19061 -13.047586,-3.39972 -15.057607,-8.37754 -1.508975,-3.73699 3.683487,-3.3554 5.692587,-2.5086 11.084312,4.67187 22.680469,8.42563 34.826168,8.94704 m 1.755941,0.58532 H 81.91522 l 0.292656,-0.87796 0.877972,0.87796 m 5.267823,-0.29265 v 0.29265 l -4.975167,0.29267 c 0.998702,-1.80527 3.25988,-0.62092 4.975167,-0.58532 m 3.804539,5.85313 v -0.29265 c 4.973398,-0.44798 3.784907,-4.91953 -0.585313,-5.26783 2.793153,-1.33964 6.935291,1.79744 4.262939,4.5599 -0.948221,0.98023 -2.414533,0.98999 -3.677626,1.00058 z"
       id="path4" /></g></svg>
