<?xml version="1.0" encoding="UTF-8" standalone="no"?>
<!-- Created with Inkscape (http://www.inkscape.org/) -->

<svg
   width="210mm"
   height="297mm"
   viewBox="0 0 210 297"
   version="1.1"
   id="svg1"
   xml:space="preserve"
   inkscape:export-filename="muscle.svg"
   inkscape:export-xdpi="96"
   inkscape:export-ydpi="96"
   xmlns:inkscape="http://www.inkscape.org/namespaces/inkscape"
   xmlns:sodipodi="http://sodipodi.sourceforge.net/DTD/sodipodi-0.dtd"
   xmlns="http://www.w3.org/2000/svg"
   xmlns:svg="http://www.w3.org/2000/svg"><sodipodi:namedview
     id="namedview1"
     pagecolor="#ffffff"
     bordercolor="#000000"
     borderopacity="0.25"
     inkscape:showpageshadow="2"
     inkscape:pageopacity="0.0"
     inkscape:pagecheckerboard="0"
     inkscape:deskcolor="#d1d1d1"
     inkscape:document-units="mm" /><defs
     id="defs1" /><g
     inkscape:label="Livello 1"
     inkscape:groupmode="layer"
     id="layer1"><path
       style="fill:#2e2c37;stroke:none;stroke-width:3.68306"
       d="m 132.19278,102.61158 c -1.77531,2.73254 -5.66038,6.75846 -4.24155,10.335 2.30272,5.8046 22.16165,6.2567 26.2319,2.71963 4.58397,-3.98347 3.76755,-23.523008 -1.7978,-26.628126 -4.01866,-2.242164 -8.82317,2.468722 -13.37124,0.896279 C 133.06036,87.875902 128.20694,83.171536 122.448,80.627239 107.70886,74.115386 91.305197,73.131158 75.673206,76.304484 8.9558818,89.84829 -3.2733231,185.37328 56.183707,216.97557 c 7.999827,4.252 17.154697,7.97709 26.310822,8.38152 38.113051,1.6836 76.633221,-19.12 83.722911,-59.40463 1.60091,-9.09668 6.31461,-29.48961 -2.25123,-36.44131 -3.98613,-3.23494 -10.68211,-0.48122 -11.82301,4.30164 -1.13755,4.76896 1.42611,10.65762 1.48427,15.57357 0.14174,11.98755 -3.05853,23.04702 -9.60942,33.13219 C 115.91798,225.77873 50.522184,217.20432 33.477518,168.87589 20.113874,130.9846 52.969434,88.804477 92.239293,88.047095 107.11846,87.76018 119.15392,97.154299 132.19278,102.61158 M 90.290337,93.841305 v 11.693705 c 4.944781,-1.44643 3.897897,-7.390826 3.897897,-11.693705 h -3.897897 m 2.923427,50.672705 c -2.401966,-10.1358 -7.888644,-20.18809 -12.972699,-29.2305 -1.453242,-2.58473 -5.255263,-8.555 -8.849242,-5.21973 -2.863175,2.6571 -0.19756,7.37712 1.121097,10.08836 4.098073,8.42584 7.79065,17.05539 12.186197,25.33634 5.767905,10.86637 13.827151,7.38887 23.131803,3.33695 2.97836,-1.29698 9.12513,-3.05142 9.12513,-7.17021 0,-8.35861 -20.356577,1.89093 -23.742286,2.85879 m -57.494041,7.79577 h 10.719229 v -4.87235 c -4.894565,5.2e-4 -9.750465,-0.93254 -10.719229,4.87235 m 102.319907,-4.87235 v 4.87235 h 9.74474 v -4.87235 h -9.74474 m 39.96852,11.35907 c -12.35159,3.8138 -4.0165,25.63352 -2.53544,34.44125 0.49993,2.973 1.21547,11.46889 6.29574,9.49514 4.00904,-1.5576 3.89388,-7.96269 4.43399,-11.44406 1.20153,-7.74397 9.89305,-38.0771 -8.19429,-32.49233 m -88.692283,47.10946 h 4.872367 v -10.71925 c -5.80492,0.96875 -4.871837,5.82467 -4.872367,10.71925 m 89.753963,1.74064 c -5.92066,2.16427 -3.50656,12.02695 2.76779,10.23349 6.23817,-1.78319 3.92141,-12.67871 -2.76779,-10.23349 z"
       id="path4" /></g></svg>
