<?xml version="1.0" encoding="UTF-8" standalone="no"?>
<!-- Created with Inkscape (http://www.inkscape.org/) -->

<svg
   width="210mm"
   height="297mm"
   viewBox="0 0 210 297"
   version="1.1"
   id="svg1"
   xml:space="preserve"
   inkscape:export-filename="time.svg"
   inkscape:export-xdpi="96"
   inkscape:export-ydpi="96"
   xmlns:inkscape="http://www.inkscape.org/namespaces/inkscape"
   xmlns:sodipodi="http://sodipodi.sourceforge.net/DTD/sodipodi-0.dtd"
   xmlns="http://www.w3.org/2000/svg"
   xmlns:svg="http://www.w3.org/2000/svg"><sodipodi:namedview
     id="namedview1"
     pagecolor="#ffffff"
     bordercolor="#000000"
     borderopacity="0.25"
     inkscape:showpageshadow="2"
     inkscape:pageopacity="0.0"
     inkscape:pagecheckerboard="0"
     inkscape:deskcolor="#d1d1d1"
     inkscape:document-units="mm" /><defs
     id="defs1" /><g
     inkscape:label="Livello 1"
     inkscape:groupmode="layer"
     id="layer1"><path
       style="fill:#060606;stroke:none;stroke-width:2.52814"
       d="m 48.198714,7.2947025 c -4.206311,0.9248195 -4.155954,4.0286725 -6.36388,7.0080385 -1.691899,2.283065 -4.403201,3.5304 -5.730597,6.109409 -3.120875,6.063626 -1.284123,16.021274 -1.284123,22.680301 v 27.425095 c 0,4.277112 -0.725226,9.609776 1.824523,13.349177 4.891507,7.173735 22.219744,5.48026 29.613989,3.778587 10.050788,-2.313002 7.357961,-17.624544 7.357961,-25.154618 0,-11.947778 3.052227,-28.738617 -0.537813,-40.133742 C 72.033818,19.040178 69.204783,17.534112 67.130357,14.972117 65.736003,13.250022 65.431008,10.856426 63.908681,9.2658203 60.72963,5.9441683 52.329007,6.3865939 48.198714,7.2947025 m 2.678211,3.9205175 c 2.138951,-0.255696 8.576627,-0.276983 10.0124,1.511223 1.259931,1.569219 0.749392,3.827584 2.237424,5.432778 1.612981,1.739944 4.200596,2.146798 5.370853,4.340164 1.977994,3.70727 0.542242,7.987492 0.446441,11.897316 -0.229177,9.352738 -0.0099,18.738167 -0.0099,28.093991 0,5.533194 2.743142,19.87937 -4.684902,21.252153 -5.070308,0.937056 -20.182167,2.14427 -23.73425,-2.006715 -2.577145,-3.01165 -1.68155,-8.223998 -1.68155,-11.887506 V 41.085738 c 0,-5.120375 -1.704434,-14.06267 0.97445,-18.586353 1.250543,-2.111733 3.839711,-2.487541 5.313576,-4.340164 2.297174,-2.887544 1.061676,-6.38298 5.755358,-6.944001 m 123.744235,8.752002 c -9.79457,1.39053 -18.46385,6.656147 -21.72389,16.436193 -5.49803,16.493934 7.27529,36.958924 25.73732,34.589472 9.85561,-1.264906 18.67155,-6.735428 22.00415,-16.52905 5.64246,-16.581763 -7.45956,-37.131243 -26.01758,-34.496615 M 82.981234,168.8465 c 5.951904,4.55507 9.610148,12.00665 13.860159,18.06042 1.884532,2.68441 4.673157,5.38934 5.351757,8.69574 0.85722,4.17642 -0.54715,8.58125 -1.04774,12.70921 -1.05375,8.68906 -1.839753,17.4071 -2.967767,26.08728 -1.163997,8.95734 -6.521519,27.38914 0.331372,34.71284 6.452575,6.89586 17.785935,3.17153 20.445475,-5.28106 1.87537,-5.9604 1.60493,-12.56502 2.26528,-18.72932 1.45805,-13.61092 2.95447,-27.29611 5.18657,-40.80316 0.83386,-5.04583 1.94629,-10.33422 0.69369,-15.38482 -2.40783,-9.7087 -12.35491,-19.52319 -18.2813,-27.42508 -3.07706,-4.10277 -8.61061,-8.94074 -9.81165,-14.04699 -0.771815,-3.28138 1.94783,-6.75045 3.58607,-9.36467 4.64271,-7.40853 9.6921,-14.40268 14.9208,-21.40496 8.42443,-11.28191 8.54699,-27.790133 10.66893,-41.472061 1.81676,-11.714252 4.71037,-20.726982 18.34429,-20.736032 -14.27917,-11.78676 -31.93958,10.53462 -40.80316,19.398215 -17.966329,17.966325 -38.556072,41.965068 -44.006802,67.559368 -2.648611,12.4367 -2.905329,25.48209 -3.459103,38.12756 -0.247151,5.64342 1.452858,13.09321 -1.834342,18.0604 -2.970101,4.48808 -7.762647,7.66703 -11.570081,11.38119 -8.466905,8.25947 -17.056618,16.37789 -25.418374,24.73965 -5.219671,5.21966 -12.5781111,10.5049 -11.9747345,18.72935 0.5945588,8.1043 9.3377405,12.71567 16.6570655,9.93705 8.033428,-3.04973 14.799556,-12.69674 20.736043,-18.63282 7.913683,-7.91315 16.156224,-15.4904 24.080562,-23.41165 3.753352,-3.75189 8.704796,-7.1726 11.078191,-12.04028 1.960701,-4.0212 1.396572,-8.41162 1.690873,-12.70921 0.613706,-8.96176 1.277926,-17.74758 1.277926,-26.75616 M 141.84485,56.897377 c -11.42809,1.013356 -10.99068,15.964188 -12.22198,24.322633 -1.91533,13.00196 -7.34711,28.36509 -5.71459,41.47207 1.18812,9.53916 7.2358,19.74256 10.54301,28.76291 2.96845,8.09632 6.10615,26.6751 18.09602,25.08082 7.6874,-1.02218 10.60981,-8.10619 8.85626,-15.04726 -3.54769,-14.04282 -13.86947,-27.78252 -15.53652,-42.08115 -1.87639,-16.09402 6.60651,-34.118491 7.80079,-50.227672 0.49928,-6.734619 -4.85748,-12.900002 -11.82299,-12.282351 M 48.198203,68.136642 c -5.192828,0.821065 -9.742186,7.714906 -4.479503,11.91792 3.258767,2.602622 13.209844,2.341793 17.186117,1.613966 4.804977,-0.87949 7.920011,-8.424456 3.725928,-11.992273 -2.777606,-2.362852 -12.920058,-2.09497 -16.432542,-1.539613 z"
       id="path4" /></g></svg>
